<svg xmlns="http://www.w3.org/2000/svg" viewBox="0 0 256 256" fill="none">
  <!-- Micelio icon-only: mycelium network, transparent bg, for favicons/small contexts -->
  <g transform="translate(128,128)" stroke="#D4AF37" stroke-width="2.5" stroke-linecap="round">
    <circle cx="0" cy="0" r="8" fill="#D4AF37"/>
    <circle cx="0" cy="-52" r="6" fill="#D4AF37"/>
    <circle cx="45" cy="-26" r="6" fill="#D4AF37"/>
    <circle cx="45" cy="26" r="6" fill="#D4AF37"/>
    <circle cx="0" cy="52" r="6" fill="#D4AF37"/>
    <circle cx="-45" cy="26" r="6" fill="#D4AF37"/>
    <circle cx="-45" cy="-26" r="6" fill="#D4AF37"/>
    <line x1="0" y1="0" x2="0" y2="-52"/>
    <line x1="0" y1="0" x2="45" y2="-26"/>
    <line x1="0" y1="0" x2="45" y2="26"/>
    <line x1="0" y1="0" x2="0" y2="52"/>
    <line x1="0" y1="0" x2="-45" y2="26"/>
    <line x1="0" y1="0" x2="-45" y2="-26"/>
    <line x1="0" y1="-52" x2="45" y2="-26"/>
    <line x1="45" y1="-26" x2="45" y2="26"/>
    <line x1="45" y1="26" x2="0" y2="52"/>
    <line x1="0" y1="52" x2="-45" y2="26"/>
    <line x1="-45" y1="26" x2="-45" y2="-26"/>
    <line x1="-45" y1="-26" x2="0" y2="-52"/>
    <circle cx="0" cy="-95" r="4" fill="#D4AF37"/>
    <circle cx="82" cy="-48" r="4" fill="#D4AF37"/>
    <circle cx="82" cy="48" r="4" fill="#D4AF37"/>
    <circle cx="0" cy="95" r="4" fill="#D4AF37"/>
    <circle cx="-82" cy="48" r="4" fill="#D4AF37"/>
    <circle cx="-82" cy="-48" r="4" fill="#D4AF37"/>
    <line x1="0" y1="-52" x2="0" y2="-95"/>
    <line x1="45" y1="-26" x2="82" y2="-48"/>
    <line x1="45" y1="26" x2="82" y2="48"/>
    <line x1="0" y1="52" x2="0" y2="95"/>
    <line x1="-45" y1="26" x2="-82" y2="48"/>
    <line x1="-45" y1="-26" x2="-82" y2="-48"/>
  </g>
</svg>
